<?xml version="1.0" standalone="no"?>
<!DOCTYPE svg PUBLIC "-//W3C//DTD SVG 20010904//EN"
 "http://www.w3.org/TR/2001/REC-SVG-20010904/DTD/svg10.dtd">
<svg version="1.0" xmlns="http://www.w3.org/2000/svg"
 width="1952.000000pt" height="1952.000000pt" viewBox="0 0 1952.000000 1952.000000"
 preserveAspectRatio="xMidYMid meet">
<metadata>
Created by potrace 1.14, written by Peter Selinger 2001-2017
</metadata>
<g transform="translate(0.000000,1952.000000) scale(0.100000,-0.100000)"
fill="#000000" stroke="none">
<path d="M2 10073 l3 -2888 403 -1 c221 -1 405 3 408 7 3 5 5 138 4 296 -1
159 -1 297 -1 308 0 11 0 214 1 451 l0 431 136 139 c113 116 360 369 827 846
l79 80 47 -51 c26 -28 46 -51 44 -51 -2 0 6 -11 19 -23 24 -25 40 -43 128
-147 30 -35 69 -80 87 -100 17 -19 41 -46 53 -60 69 -81 108 -126 134 -154 16
-17 45 -51 65 -76 20 -25 45 -54 56 -66 11 -11 31 -34 45 -50 14 -16 56 -65
95 -109 38 -44 78 -91 90 -104 35 -42 108 -125 119 -137 6 -6 29 -32 51 -59
22 -27 54 -64 72 -82 17 -18 29 -33 27 -33 -2 0 4 -8 14 -18 24 -26 77 -85
147 -167 96 -112 109 -127 120 -139 6 -6 39 -45 75 -86 36 -41 70 -80 75 -86
6 -6 30 -35 55 -64 25 -29 50 -58 55 -64 6 -6 53 -60 105 -121 52 -60 97 -112
100 -115 3 -3 32 -36 65 -75 33 -38 67 -77 75 -86 8 -9 35 -40 60 -69 85 -100
105 -123 127 -145 l21 -23 471 1 c259 0 471 3 471 8 0 4 -9 18 -20 31 -11 12
-58 70 -105 128 -48 58 -101 123 -120 145 -18 22 -46 56 -62 75 -15 19 -36 44
-45 55 -9 11 -53 65 -98 120 -46 55 -94 114 -109 131 -14 17 -37 46 -51 64
-14 18 -30 38 -35 44 -6 6 -30 36 -55 66 -59 71 -83 100 -95 114 -6 6 -39 47
-75 91 -35 44 -78 96 -94 116 -45 52 -62 72 -156 189 -46 58 -87 107 -90 110
-4 4 -52 62 -110 133 -8 10 -23 28 -34 40 -10 12 -30 38 -45 57 -14 19 -28 37
-32 40 -3 3 -40 48 -83 100 -43 52 -96 115 -116 140 -21 25 -104 126 -185 225
-141 174 -192 236 -232 282 -10 12 -25 30 -33 40 -8 10 -35 43 -60 73 -25 30
-50 62 -57 70 -6 8 -38 46 -70 85 -32 38 -61 74 -66 80 -4 5 -19 24 -33 40
-14 17 -37 46 -52 65 -15 19 -29 37 -32 40 -3 3 -38 45 -79 93 l-74 88 29 31
c16 18 38 41 49 53 41 45 281 300 315 335 19 20 89 95 155 165 66 70 136 145
155 165 19 20 87 92 150 160 63 67 135 144 160 170 25 26 101 107 170 180 162
173 284 301 340 361 25 26 92 98 150 159 58 62 137 145 175 186 39 40 113 119
165 175 52 56 123 131 158 167 34 35 62 65 62 67 0 1 28 32 62 68 35 35 83 86
106 111 l44 46 -471 0 -471 0 -67 -71 c-38 -40 -102 -106 -143 -149 -41 -42
-160 -166 -265 -275 -104 -109 -219 -228 -255 -265 -36 -37 -155 -161 -265
-276 -110 -114 -220 -229 -245 -254 -180 -187 -474 -493 -520 -540 -30 -32
-143 -149 -250 -260 -107 -111 -215 -224 -240 -249 -154 -161 -474 -493 -520
-541 -30 -31 -119 -123 -197 -204 l-142 -148 -1 948 c-1 522 -1 956 -1 964 0
133 1 1281 1 1298 l0 22 -410 0 -410 0 2 -2887z"/>
<path d="M17408 11614 c-2 -1 -34 -5 -73 -8 -38 -4 -88 -9 -110 -12 -22 -4
-51 -7 -65 -9 -24 -2 -95 -13 -135 -21 -11 -2 -33 -7 -50 -9 -69 -13 -217 -49
-265 -66 -14 -5 -34 -10 -45 -12 -11 -2 -31 -8 -45 -14 -14 -6 -54 -20 -90
-32 -35 -12 -85 -32 -110 -43 -25 -11 -76 -34 -115 -51 -38 -17 -75 -34 -81
-39 -6 -4 -42 -24 -79 -44 -38 -20 -73 -40 -79 -45 -6 -5 -43 -31 -82 -57 -39
-26 -85 -59 -104 -74 l-33 -26 47 -94 c27 -51 52 -97 56 -103 5 -5 28 -48 53
-95 24 -47 56 -106 71 -132 14 -26 39 -71 54 -100 15 -29 31 -59 35 -66 8 -11
30 2 112 65 71 56 285 166 431 223 60 23 113 43 119 45 5 1 17 5 25 8 21 9
247 64 290 72 86 14 127 19 153 20 15 0 27 2 27 5 0 9 344 14 425 6 122 -12
301 -50 323 -69 8 -7 16 -10 16 -8 2 9 85 -24 156 -62 224 -119 372 -310 436
-562 25 -102 37 -205 39 -347 l2 -148 -696 -1 c-383 -1 -714 -2 -736 -3 -107
-6 -245 -17 -271 -23 -16 -3 -38 -6 -49 -8 -22 -2 -111 -16 -135 -21 -8 -1
-44 -10 -80 -19 -36 -8 -74 -18 -84 -20 -44 -10 -185 -60 -246 -87 -267 -118
-478 -315 -581 -544 -45 -101 -56 -128 -65 -166 -1 -5 -2 -9 -3 -10 -2 -2 -4
-14 -7 -28 -2 -14 -9 -47 -14 -75 -31 -147 -30 -405 3 -535 2 -8 7 -28 11 -45
27 -108 83 -242 139 -330 17 -27 34 -52 37 -55 3 -3 17 -21 32 -42 79 -105
227 -232 363 -311 98 -57 282 -136 355 -152 8 -2 42 -11 75 -20 77 -21 92 -24
140 -31 22 -3 49 -7 60 -9 29 -4 123 -16 170 -21 49 -5 364 -4 420 1 83 8 152
16 208 26 32 6 70 12 85 14 21 3 185 49 277 79 62 19 222 101 305 155 94 62
310 269 310 297 0 3 6 12 14 19 12 12 14 -22 14 -238 1 -139 1 -268 1 -288 l1
-36 375 0 376 0 -4 1461 c-1 804 -6 1470 -9 1481 -3 11 -9 43 -12 70 -6 44
-33 193 -40 220 -2 6 -6 24 -11 40 -8 34 -36 118 -60 184 -29 79 -107 231
-137 265 -10 11 -18 24 -18 28 0 23 -182 227 -252 283 -50 39 -132 97 -184
128 -53 32 -226 117 -238 117 -3 0 -17 5 -33 12 -15 6 -30 12 -33 13 -195 57
-220 64 -250 69 -14 2 -36 7 -50 10 -65 15 -164 30 -290 42 -49 5 -488 12
-492 8z m1324 -2489 c2 -11 3 -151 2 -311 -1 -256 -3 -296 -19 -340 -11 -27
-21 -51 -24 -54 -4 -3 -17 -27 -31 -55 -47 -96 -168 -244 -260 -320 -95 -78
-336 -205 -388 -205 -10 0 -22 -3 -26 -7 -4 -5 -12 -9 -17 -9 -5 -1 -10 -2
-11 -4 -2 -1 -12 -3 -23 -5 -11 -2 -55 -11 -98 -19 -108 -21 -201 -29 -337
-29 -163 0 -342 19 -405 43 -14 5 -25 7 -25 4 0 -3 -6 -2 -12 3 -7 4 -17 8
-23 9 -32 6 -137 52 -199 87 -73 42 -226 185 -226 211 0 8 -4 16 -8 18 -12 5
-51 93 -68 156 -18 63 -26 249 -13 297 5 17 10 42 13 56 11 65 84 197 139 250
26 25 89 73 116 87 65 36 140 69 181 81 25 7 56 17 70 22 22 8 68 17 125 25
11 1 20 3 20 4 0 3 58 8 175 15 63 4 116 8 117 9 1 0 283 1 626 1 618 0 626 0
629 -20z"/>
<path d="M12828 11605 c-4 -4 -42 -9 -85 -11 -43 -2 -96 -5 -118 -8 -22 -3
-62 -8 -90 -11 -69 -8 -194 -33 -290 -57 -44 -11 -84 -21 -90 -23 -5 -1 -17
-5 -25 -8 -8 -4 -51 -20 -95 -36 -108 -39 -149 -55 -155 -61 -3 -3 -31 -18
-63 -34 -114 -57 -240 -149 -331 -241 -50 -51 -97 -100 -104 -109 -29 -37 -92
-136 -92 -146 0 -5 -4 -10 -10 -10 -5 0 -10 -6 -10 -14 0 -8 -9 -30 -19 -48
-28 -49 -69 -174 -86 -263 -24 -130 -25 -359 0 -475 3 -14 8 -38 10 -53 17
-90 119 -325 146 -335 5 -2 9 -8 9 -13 0 -24 149 -173 232 -232 89 -64 256
-154 299 -162 9 -2 25 -8 35 -13 16 -9 46 -21 64 -27 3 -1 37 -11 75 -24 39
-12 77 -24 85 -26 8 -2 40 -11 70 -20 47 -13 247 -56 330 -71 14 -2 48 -9 75
-15 28 -6 66 -12 85 -14 19 -3 46 -7 60 -10 14 -3 41 -8 60 -10 19 -3 49 -7
65 -10 128 -25 253 -48 270 -50 11 -1 54 -10 95 -19 470 -104 666 -260 662
-526 -1 -72 -7 -145 -12 -145 -1 0 -3 -8 -5 -17 -4 -24 -51 -124 -67 -144 -75
-94 -205 -183 -303 -207 -5 -2 -19 -8 -30 -14 -11 -6 -23 -11 -28 -11 -4 0
-20 -3 -35 -6 -15 -4 -37 -9 -49 -11 -13 -3 -33 -7 -45 -10 -100 -22 -261 -35
-438 -35 -128 0 -317 12 -367 24 -12 2 -46 7 -75 10 -30 4 -68 10 -86 15 -18
6 -35 10 -37 10 -27 1 -104 19 -237 55 -55 15 -218 70 -253 86 -11 5 -40 17
-65 27 -98 39 -332 161 -338 176 -2 4 -10 7 -17 7 -8 0 -20 7 -29 15 -18 19
-46 9 -46 -15 0 -11 -4 -21 -8 -24 -5 -3 -30 -47 -56 -98 -26 -51 -66 -129
-90 -173 -23 -44 -66 -126 -96 -183 l-53 -102 21 -20 c39 -37 175 -120 281
-173 100 -50 284 -125 333 -136 4 -1 27 -9 50 -17 47 -17 46 -17 133 -39 33
-9 69 -18 80 -21 31 -9 114 -26 190 -39 17 -3 55 -10 85 -16 76 -14 156 -23
212 -23 27 -1 48 -3 48 -6 0 -3 10 -6 23 -7 52 -4 526 -2 567 2 25 2 76 7 115
10 38 3 77 8 85 10 8 2 38 7 65 10 28 3 61 8 75 11 14 3 39 7 55 10 17 3 57
12 90 21 33 8 68 16 77 18 27 6 131 37 153 46 11 5 56 22 100 39 136 53 297
146 400 231 30 24 171 165 190 191 69 88 172 289 175 340 1 4 7 26 15 48 8 22
14 42 15 45 0 3 0 6 1 8 7 20 22 191 21 247 0 84 -11 200 -26 265 -3 17 -8 39
-11 50 -14 68 -67 195 -94 228 -8 9 -11 17 -7 17 4 0 -6 18 -23 39 -17 21 -31
42 -31 45 0 11 -153 160 -195 191 -22 16 -42 31 -45 34 -6 7 -28 20 -120 71
-36 20 -68 37 -73 37 -13 3 -80 34 -112 51 -16 9 -32 16 -35 15 -3 0 -15 3
-28 8 -13 5 -27 9 -30 9 -4 0 -41 11 -82 24 -41 14 -86 27 -100 30 -14 3 -92
21 -174 40 -82 19 -166 37 -185 40 -20 2 -43 7 -51 10 -8 3 -33 7 -55 10 -22
3 -51 8 -65 11 -24 5 -183 33 -230 41 -49 8 -65 11 -90 17 -14 4 -38 8 -55 11
-32 4 -43 6 -150 31 -266 61 -453 145 -560 252 -171 170 -160 486 23 655 50
46 136 108 151 108 6 0 11 5 11 10 0 6 8 10 18 10 10 0 22 4 28 9 29 28 260
89 404 108 82 10 474 10 560 -1 36 -4 79 -9 95 -11 17 -2 41 -6 55 -9 14 -4
41 -9 60 -12 58 -9 72 -12 135 -30 33 -9 67 -17 75 -19 34 -7 210 -75 275
-106 39 -18 72 -34 75 -34 3 0 16 -8 30 -16 14 -9 54 -33 89 -53 60 -35 65
-36 75 -19 6 10 28 49 50 88 21 38 60 109 87 157 27 48 49 92 49 98 0 5 5 10
10 10 6 0 10 4 10 8 0 5 28 59 62 122 l61 113 -24 18 c-73 57 -434 210 -547
233 -9 1 -24 6 -32 9 -18 7 -176 47 -205 52 -11 2 -45 8 -75 14 -30 7 -71 14
-90 17 -19 2 -44 7 -56 9 -12 3 -37 7 -57 10 -33 6 -55 8 -172 20 -27 3 -103
7 -169 10 -65 2 -120 6 -122 7 -4 5 -126 -1 -140 -6 -7 -3 -14 0 -16 5 -2 6
-6 7 -10 4z"/>
<path d="M6687 11578 c-8 -13 -63 -108 -122 -213 -59 -104 -133 -233 -164
-285 -30 -52 -56 -97 -56 -100 0 -3 -8 -16 -16 -30 -13 -20 -123 -211 -244
-425 -111 -194 -135 -238 -135 -242 0 -2 -5 -9 -10 -16 -6 -7 -87 -146 -180
-310 l-170 -297 2 -535 c2 -294 7 -535 11 -535 5 0 5 -5 2 -10 -4 -6 -6 -43
-6 -83 2 -198 9 -653 10 -658 1 -6 177 -112 291 -176 14 -8 39 -23 55 -33 17
-11 37 -23 45 -27 22 -10 228 -132 279 -165 25 -15 50 -28 58 -28 7 0 13 -4
13 -10 0 -5 4 -10 9 -10 4 0 68 -36 141 -80 73 -44 135 -80 137 -80 2 0 20
-11 41 -23 78 -49 97 -61 97 -57 0 3 20 -9 45 -25 53 -35 58 -38 175 -106 50
-29 151 -89 225 -133 187 -112 213 -126 233 -133 9 -3 17 -9 17 -14 0 -5 4 -9
9 -9 5 0 39 -18 76 -41 l67 -40 101 59 102 59 2 862 3 862 57 102 c32 56 63
111 70 122 7 11 15 27 20 35 4 8 19 36 34 61 15 26 41 71 57 100 17 30 82 146
146 258 64 112 116 207 116 211 0 4 7 13 15 20 9 7 13 15 11 18 -3 3 3 17 13
31 18 25 34 53 89 151 14 25 51 90 82 145 32 55 67 117 79 138 11 20 30 54 42
74 11 20 32 58 45 84 l25 47 62 -35 c34 -19 91 -51 127 -71 36 -19 67 -38 70
-42 3 -4 20 -13 38 -21 17 -8 32 -17 32 -21 0 -5 4 -8 10 -8 5 0 42 -19 82
-43 40 -24 80 -46 88 -50 8 -4 24 -13 35 -20 88 -53 148 -87 156 -87 5 0 9 -4
9 -10 0 -5 5 -10 10 -10 6 0 55 -26 109 -57 l98 -58 0 -853 c0 -468 2 -855 5
-858 4 -3 24 6 47 20 22 14 45 26 51 26 5 0 10 4 10 8 0 4 20 18 45 30 39 19
45 26 46 54 3 123 1 1779 -2 1782 -15 13 -492 286 -500 286 -5 0 -9 5 -9 10 0
6 -4 10 -10 10 -5 0 -50 25 -100 55 -50 30 -93 55 -96 55 -3 0 -18 8 -32 19
-15 10 -47 29 -72 43 -25 14 -107 62 -184 107 -76 44 -142 81 -147 81 -5 0 -9
5 -9 10 0 6 -4 10 -9 10 -9 0 -153 81 -161 91 -3 3 -20 12 -37 20 -18 8 -33
17 -33 21 0 5 -4 8 -9 8 -5 0 -42 19 -81 43 -40 23 -89 51 -109 63 -89 51
-112 64 -150 88 -22 15 -45 26 -51 26 -5 0 -10 5 -10 11 0 5 -4 8 -9 4 -5 -3
-12 -1 -15 4 -4 5 -37 26 -74 47 -37 20 -68 41 -70 46 -2 4 -8 8 -13 8 -8 0
-339 188 -416 236 -13 8 -25 13 -27 12 -2 -2 -12 4 -22 13 -17 15 -105 66
-161 93 -13 6 -23 14 -23 19 0 4 -6 7 -14 7 -7 0 -19 7 -26 15 -7 8 -16 12
-21 9 -5 -3 -9 0 -9 5 0 6 -4 11 -9 11 -5 0 -42 20 -83 45 -40 25 -84 50 -98
57 -14 7 -28 17 -32 23 -4 5 -8 7 -8 3 0 -4 -24 7 -52 25 -29 19 -79 48 -110
66 l-57 32 -14 -23z"/>
<path d="M8875 8559 c-55 -32 -107 -64 -115 -69 -8 -5 -35 -21 -60 -35 -60
-33 -95 -54 -155 -92 l-50 -32 0 -581 c0 -319 2 -580 5 -580 3 0 43 23 89 50
46 28 85 50 87 50 4 0 108 64 114 70 3 3 16 11 30 17 14 7 43 24 65 37 22 14
55 33 73 42 l32 16 0 584 c0 321 -3 584 -7 584 -5 0 -53 -28 -108 -61z"/>
</g>
</svg>
